<svg width="2450" height="931" viewBox="0 0 2450 931" fill="none" xmlns="http://www.w3.org/2000/svg">
<path d="M51.0067 991.187C421.235 746.338 797.305 599.865 1163.05 517.925C1767 382.94 2151.09 747.065 2404.63 1051.85" stroke="#BCDFA0" stroke-opacity="0.2" stroke-width="0.570359" stroke-miterlimit="10"/>
<path d="M51.7592 1062.36C411.913 818.977 786.589 655.208 1154.16 558.349C1752.81 400.6 2149.33 720.025 2404.69 1027.4" stroke="#BCDFA0" stroke-opacity="0.2" stroke-width="0.608345" stroke-miterlimit="10"/>
<path d="M52.8038 1133.28C402.62 891.061 776.43 710.577 1145.85 598.523C1738.89 418.552 2148.41 692.747 2405.31 1002.97" stroke="#BCDFA0" stroke-opacity="0.2" stroke-width="0.646444" stroke-miterlimit="10"/>
<path d="M53.5591 1204.45C393.301 963.701 765.968 766.489 1136.96 638.947C1724.4 436.754 2146.93 665.721 2405.36 978.799" stroke="#BCDFA0" stroke-opacity="0.2" stroke-width="0.68443" stroke-miterlimit="10"/>
<path d="M54.3124 1275.63C383.993 1036.06 755.504 822.398 1128.09 679.093C1710.17 455.244 2145.46 638.416 2405.42 954.346" stroke="#BCDFA0" stroke-opacity="0.2" stroke-width="0.722416" stroke-miterlimit="10"/>
<path d="M55.3564 1346.54C374.685 1108.42 745.305 878.6 1119.49 719.254C1696.21 474.029 2144.27 611.127 2406.05 929.645" stroke="#BCDFA0" stroke-opacity="0.2" stroke-width="0.760516" stroke-miterlimit="10"/>
<path d="M56.1107 1417.72C365.088 1181.05 734.829 934.788 1110.6 759.678C1681.95 493.353 2142.79 584.099 2406.1 905.471" stroke="#BCDFA0" stroke-opacity="0.2" stroke-width="0.798502" stroke-miterlimit="10"/>
<path d="M56.8642 1488.9C355.781 1253.41 724.603 991.543 1101.99 800.115C1668.22 512.98 2141.58 557.086 2406.42 881.309" stroke="#BCDFA0" stroke-opacity="0.2" stroke-width="0.836488" stroke-miterlimit="10"/>
<path d="M57.8954 1560.09C346.46 1326.05 714.377 1048.3 1093.11 840.54C1654.21 532.873 2140.1 530.06 2406.47 857.136" stroke="#BCDFA0" stroke-opacity="0.2" stroke-width="0.874588" stroke-miterlimit="10"/>
<path d="M58.664 1630.99C337.155 1398.41 704.166 1104.78 1084.24 880.686C1640.48 552.5 2138.91 502.768 2406.82 832.419" stroke="#BCDFA0" stroke-opacity="0.2" stroke-width="0.912574" stroke-miterlimit="10"/>
<path d="M59.4172 1702.16C327.847 1470.77 694.203 1161.82 1075.64 920.846C1627.01 572.695 2137.43 475.741 2407.15 808.258" stroke="#BCDFA0" stroke-opacity="0.2" stroke-width="0.95056" stroke-miterlimit="10"/>
<path d="M60.4483 1773.35C318.526 1543.41 684.518 1218.88 1067.03 961.283C1613.81 592.904 2136.23 448.45 2407.49 783.819" stroke="#BCDFA0" stroke-opacity="0.2" stroke-width="0.98866" stroke-miterlimit="10"/>
<path d="M61.2152 1844.25C308.955 1615.48 674.556 1275.93 1058.16 1001.43C1600.6 613.391 2134.76 421.147 2407.55 759.368" stroke="#BCDFA0" stroke-opacity="0.2" stroke-width="1.02665" stroke-miterlimit="10"/>
<path d="M62.2463 1915.45C299.912 1688.14 665.135 1333.28 1049.55 1041.87C1587.39 633.878 2133.28 394.121 2407.89 734.931" stroke="#BCDFA0" stroke-opacity="0.2" stroke-width="1.06463" stroke-miterlimit="10"/>
<path d="M63.0005 1986.62C290.314 1760.76 655.438 1390.62 1040.66 1082.29C1574.44 654.654 2132.08 367.107 2408.21 710.769" stroke="#BCDFA0" stroke-opacity="0.2" stroke-width="1.10273" stroke-miterlimit="10"/>
<path d="M63.7674 2057.52C579.276 1524.24 1928.44 87.7804 2408.27 686.316" stroke="#BCDFA0" stroke-opacity="0.2" stroke-width="1.14072" stroke-miterlimit="10"/>
<path d="M88.5996 421.92C366.013 588.348 526.06 918.938 878.764 987.268C1541.2 1116.03 1678.32 377.854 2435.82 112.122" stroke="#BCDFA0" stroke-opacity="0.2" stroke-width="2.28143" stroke-miterlimit="10"/>
<path d="M85.8386 462.083C361.545 600.362 548.723 898.35 888.648 960.787C1544.83 1080.91 1703.82 408.256 2433.27 188.421" stroke="#BCDFA0" stroke-opacity="0.2" stroke-width="2.1498" stroke-miterlimit="10"/>
<path d="M83.079 502.246C357.343 612.665 571.664 877.775 898.825 934.042C1548.74 1045.81 1729.31 438.658 2430.73 264.72" stroke="#BCDFA0" stroke-opacity="0.2" stroke-width="2.01816" stroke-miterlimit="10"/>
<path d="M80.3186 542.407C353.14 624.968 594.328 857.186 908.723 907.282C1552.38 1010.41 1754.53 469.046 2427.9 341.004" stroke="#BCDFA0" stroke-opacity="0.2" stroke-width="1.88652" stroke-miterlimit="10"/>
<path d="M77.8353 582.584C348.937 637.273 617.558 836.348 919.162 880.829C1556.58 975.044 1780.31 499.463 2425.61 417.595" stroke="#BCDFA0" stroke-opacity="0.2" stroke-width="1.75499" stroke-miterlimit="10"/>
<path d="M75.0752 622.745C344.734 649.576 640.249 815.204 929.338 854.083C1560.52 939.107 1805.53 529.851 2422.8 493.602" stroke="#BCDFA0" stroke-opacity="0.2" stroke-width="1.62335" stroke-miterlimit="10"/>
<path d="M72.3144 662.908C340.254 661.866 663.216 794.075 939.236 827.324C1564.48 902.893 1831.03 560.253 2420.25 569.9" stroke="#BCDFA0" stroke-opacity="0.2" stroke-width="1.49172" stroke-miterlimit="10"/>
<path d="M69.5678 702.793C336.065 673.893 686.21 772.39 949.412 800.579C1568.72 866.692 1856.54 590.378 2417.7 646.199" stroke="#BCDFA0" stroke-opacity="0.2" stroke-width="1.36008" stroke-miterlimit="10"/>
<path d="M66.8068 742.954C331.874 685.918 709.19 750.983 959.31 773.819C1572.71 829.923 1881.76 620.766 2414.88 722.483" stroke="#BCDFA0" stroke-opacity="0.2" stroke-width="1.22844" stroke-miterlimit="10"/>
<path d="M64.0461 783.117C327.394 698.209 732.183 729.299 969.472 747.352C1576.99 792.891 1907.24 651.446 2412.33 798.782" stroke="#BCDFA0" stroke-opacity="0.2" stroke-width="1.0968" stroke-miterlimit="10"/>
<path d="M61.2868 823.279C323.192 710.513 754.952 712.328 979.648 720.606C1581.9 742.55 1932.74 681.848 2409.78 875.081" stroke="#BCDFA0" stroke-opacity="0.2" stroke-width="0.965275" stroke-miterlimit="10"/>
<path d="M58.8036 863.454C319.266 722.83 778.185 685.653 989.824 693.861C1585.34 717.149 1958.25 711.972 2407.23 951.379" stroke="#BCDFA0" stroke-opacity="0.2" stroke-width="0.833636" stroke-miterlimit="10"/>
<path d="M56.043 903.616C314.786 735.12 801.205 663.414 999.986 667.392C1589.7 678.452 1983.73 742.651 2404.67 1027.95" stroke="#BCDFA0" stroke-opacity="0.2" stroke-width="0.701998" stroke-miterlimit="10"/>
<path d="M53.2829 943.778C310.583 747.423 824.226 641.175 1009.88 640.633C1593.54 638.898 2008.95 773.04 2402.12 1104.25" stroke="#BCDFA0" stroke-opacity="0.2" stroke-width="0.570359" stroke-miterlimit="10"/>
</svg>
